<?xml version="1.0" standalone="no"?>
<!DOCTYPE svg PUBLIC "-//W3C//DTD SVG 20010904//EN"
 "http://www.w3.org/TR/2001/REC-SVG-20010904/DTD/svg10.dtd">
<svg version="1.0" xmlns="http://www.w3.org/2000/svg"
 width="302.000000pt" height="167.000000pt" viewBox="0 0 302.000000 167.000000"
 preserveAspectRatio="xMidYMid meet">

<g transform="translate(0.000000,167.000000) scale(0.100000,-0.100000)"
fill="#000000" stroke="none">
<path d="M0 1645 l0 -25 203 -2 c111 -1 216 -3 232 -5 54 -6 59 -6 124 2 49 5
66 4 72 -7 6 -9 9 -9 9 -1 0 9 85 12 353 12 193 -1 369 2 390 6 50 10 105 -2
110 -23 3 -9 5 2 6 26 l1 42 -750 0 -750 0 0 -25z m564 -13 c2 -4 -7 -9 -22
-10 -21 -1 -24 0 -12 8 18 12 27 12 34 2z m73 2 c-3 -3 -12 -4 -19 -1 -8 3 -5
6 6 6 11 1 17 -2 13 -5z"/>
<path d="M1520 1643 c0 -22 2 -25 10 -13 13 20 13 40 0 40 -5 0 -10 -12 -10
-27z"/>
<path d="M1564 1661 c7 -11 134 -13 171 -2 23 7 6 9 -73 10 -57 1 -101 -3 -98
-8z"/>
<path d="M1940 1664 c59 -8 140 -8 140 -1 0 4 -37 6 -82 6 -46 -1 -72 -3 -58
-5z"/>
<path d="M2140 1659 c25 -5 94 -5 155 0 l110 8 -155 0 c-115 1 -143 -1 -110
-8z"/>
<path d="M2498 1663 c12 -2 32 -2 45 0 12 2 2 4 -23 4 -25 0 -35 -2 -22 -4z"/>
<path d="M2968 1663 c6 -2 18 -2 25 0 6 3 1 5 -13 5 -14 0 -19 -2 -12 -5z"/>
<path d="M454 1308 c-25 -23 -54 -42 -64 -43 -11 -1 -17 1 -15 5 2 4 -18 17
-45 29 l-49 22 -74 -35 c-41 -20 -80 -36 -88 -36 -8 -1 -1 -6 14 -13 26 -11
23 -12 -37 -12 -66 0 -91 -9 -67 -24 10 -7 9 -10 -8 -16 -15 -4 -21 -15 -21
-35 l0 -28 107 -1 c100 -1 238 -14 463 -43 52 -7 158 -12 235 -11 115 0 155 5
226 24 64 18 85 28 82 39 -4 12 -3 13 5 1 7 -9 23 -12 53 -8 24 3 78 8 121 10
42 3 82 9 90 13 7 5 22 9 33 9 15 0 19 6 18 25 -3 23 -2 23 11 8 7 -10 23 -18
35 -18 17 0 21 6 21 35 0 34 -20 49 -35 25 -3 -5 1 -10 9 -10 9 0 16 -9 16
-20 0 -13 -6 -20 -17 -19 -11 0 -13 3 -5 6 17 7 15 20 -5 27 -11 4 -27 -4 -48
-24 -32 -31 -33 -31 -111 -25 -88 7 -105 14 -152 59 -32 30 -37 31 -117 31
-45 0 -81 3 -78 8 2 4 -6 7 -19 7 -13 0 -43 14 -68 30 -45 30 -77 39 -65 19 5
-6 0 -6 -12 1 -15 10 -30 6 -83 -21 -36 -18 -73 -35 -84 -36 -11 -2 -38 15
-67 42 -26 25 -51 45 -54 45 -3 0 -26 -19 -51 -42z m-179 -14 c-11 -8 -19 -20
-17 -25 2 -10 -11 -12 -21 -3 -7 7 33 43 48 43 6 0 1 -7 -10 -15z m76 -22 c-7
-2 -18 1 -23 6 -8 8 -4 9 13 5 13 -4 18 -8 10 -11z m402 11 c-7 -2 -13 -12
-14 -21 0 -11 -2 -12 -6 -4 -2 6 -9 10 -14 6 -5 -3 -9 -1 -9 5 0 11 18 19 40
19 10 0 11 -1 3 -5z m102 -3 c3 -6 -1 -7 -9 -4 -18 7 -21 14 -7 14 6 0 13 -4
16 -10z m65 -25 c14 -8 21 -14 15 -14 -5 0 -21 6 -35 14 -14 8 -20 14 -15 14
6 0 21 -6 35 -14z m-659 -14 c-7 -5 -11 -13 -7 -19 3 -6 2 -13 -2 -16 -5 -3
-8 5 -7 17 3 28 3 27 18 27 9 0 8 -3 -2 -9z m220 -14 c-10 -9 -11 -8 -5 6 3
10 9 15 12 12 3 -3 0 -11 -7 -18z m-122 -1 c-10 -9 -69 -36 -69 -32 0 7 52 35
64 36 5 0 7 -2 5 -4z m369 -27 c-3 -8 -7 -3 -11 10 -4 17 -3 21 5 13 5 -5 8
-16 6 -23z m417 21 c7 -12 -2 -12 -30 0 -19 8 -19 9 2 9 12 1 25 -3 28 -9z
m-1060 -10 c3 -6 -1 -7 -9 -4 -18 7 -21 14 -7 14 6 0 13 -4 16 -10z m45 -10
c-8 -5 -19 -10 -25 -10 -5 0 -3 5 5 10 8 5 20 10 25 10 6 0 3 -5 -5 -10z m575
-18 c-3 -3 -11 0 -18 7 -9 10 -8 11 6 5 10 -3 15 -9 12 -12z m294 -4 c13 -21
13 -22 -2 -10 -9 8 -21 11 -26 7 -7 -3 -8 0 -5 9 8 22 17 20 33 -6z m-784 2
c3 -5 2 -10 -4 -10 -5 0 -13 5 -16 10 -3 6 -2 10 4 10 5 0 13 -4 16 -10z m115
6 c0 -2 -7 -7 -16 -10 -8 -3 -12 -2 -9 4 6 10 25 14 25 6z m880 -18 c13 5 13
3 1 -11 -13 -16 -15 -16 -27 0 -7 10 -13 23 -13 28 0 6 5 3 12 -6 7 -9 19 -14
27 -11z m-1137 -15 c-7 -2 -21 -2 -30 0 -10 3 -4 5 12 5 17 0 24 -2 18 -5z
m122 -3 c-3 -4 -16 -7 -30 -7 -13 0 -23 3 -20 7 3 4 16 8 30 8 13 0 23 -4 20
-8z m905 6 c0 -2 -9 -6 -20 -9 -11 -3 -20 -1 -20 4 0 5 9 9 20 9 11 0 20 -2
20 -4z m195 -6 c13 -6 15 -9 5 -9 -8 0 -22 4 -30 9 -18 12 -2 12 25 0z m-245
-20 c0 -5 -7 -7 -15 -4 -8 4 -15 8 -15 10 0 2 7 4 15 4 8 0 15 -4 15 -10z"/>
<path d="M1979 1291 c-37 -38 -53 -47 -72 -44 -32 6 -79 -19 -136 -72 -27 -25
-59 -45 -76 -48 -25 -3 -24 -4 10 -5 31 -1 45 4 64 24 33 35 111 87 118 80 12
-11 -18 -51 -60 -81 -32 -23 -38 -31 -24 -33 10 -2 39 16 68 42 28 25 56 46
62 46 6 0 1 -7 -11 -16 -12 -8 -22 -24 -22 -35 0 -11 -7 -22 -15 -25 -29 -11
-15 -21 37 -26 73 -7 81 -3 74 41 -6 37 11 111 26 111 4 0 8 -15 8 -34 0 -19
5 -38 10 -41 6 -3 10 -1 10 4 0 22 18 10 29 -19 11 -33 34 -47 54 -33 32 25
115 7 155 -33 16 -16 22 -17 41 -5 9 6 22 6 33 0 10 -6 24 -6 31 -2 6 4 20 6
30 5 9 -2 17 2 17 9 0 7 10 9 24 7 34 -7 51 5 39 27 -7 12 -13 14 -17 6 -9
-14 -106 -15 -106 -1 0 6 20 10 45 10 34 0 48 5 57 20 17 27 38 25 64 -5 18
-21 26 -24 47 -16 20 8 31 6 50 -10 28 -21 79 -26 71 -6 -7 18 -173 91 -202
89 -14 -1 -43 -13 -66 -26 -22 -14 -58 -34 -78 -46 l-38 -20 -6 24 c-5 23 -9
24 -53 19 l-46 -5 -88 86 c-48 47 -93 86 -98 86 -6 0 -33 -22 -60 -49z"/>
<path d="M2017 1160 c-3 -8 -7 -27 -10 -42 -3 -22 0 -28 14 -28 20 0 23 17 9
60 -5 18 -9 21 -13 10z"/>
<path d="M1635 1140 c-3 -5 1 -10 9 -10 9 0 16 5 16 10 0 6 -4 10 -9 10 -6 0
-13 -4 -16 -10z"/>
<path d="M2524 1115 c3 -8 0 -15 -6 -15 -6 0 -9 -2 -6 -5 3 -4 18 -3 32 1 25
6 25 7 9 20 -24 18 -36 17 -29 -1z"/>
<path d="M2915 1120 c-22 -4 -56 -14 -76 -23 -20 -9 -39 -13 -42 -10 -4 3 -12
1 -19 -4 -19 -15 -78 -26 -78 -15 0 5 17 17 38 26 l37 16 -76 -4 c-43 -3 -90
-11 -108 -20 -17 -9 -34 -17 -38 -17 -25 0 -52 -13 -57 -26 -5 -11 0 -13 22
-8 52 11 297 -38 327 -66 15 -15 22 -11 29 16 7 27 27 33 45 12 8 -10 7 -14
-4 -14 -8 0 -12 4 -9 9 3 4 0 8 -5 8 -27 0 9 -46 39 -50 32 -5 40 1 40 29 0
17 5 33 10 36 6 3 10 0 10 -9 0 -8 3 -22 7 -32 4 -12 3 -15 -5 -10 -7 4 -12 1
-12 -8 0 -25 17 -27 24 -3 3 12 6 57 6 100 l0 77 -32 -1 c-18 -1 -51 -5 -73
-9z m-278 -46 c-3 -3 -12 -4 -19 -1 -8 3 -5 6 6 6 11 1 17 -2 13 -5z m323 -70
c0 -8 -19 -13 -24 -6 -3 5 1 9 9 9 8 0 15 -2 15 -3z"/>
<path d="M1392 1113 c-19 -3 -54 -15 -79 -29 -26 -13 -55 -22 -65 -18 -10 3
-18 2 -18 -3 0 -4 -27 -9 -61 -11 -95 -5 -117 -18 -44 -27 90 -11 147 -24 173
-41 21 -14 151 -44 188 -44 9 0 14 11 14 29 0 29 -1 29 -32 20 -52 -14 -150
-11 -173 7 -19 15 -19 15 10 13 17 -1 67 -1 113 -1 l82 2 0 55 0 55 -37 -2
c-21 0 -53 -3 -71 -5z"/>
<path d="M1593 1102 c-86 -3 -100 -24 -30 -42 23 -6 65 -18 92 -25 107 -29
363 -26 373 5 5 14 109 13 114 -2 8 -24 228 -22 228 2 0 5 -42 8 -92 8 -100 0
-259 15 -333 32 -25 6 -87 13 -138 16 -51 3 -103 6 -117 7 -14 1 -58 1 -97 -1z
m54 -18 c-3 -3 -12 -4 -19 -1 -8 3 -5 6 6 6 11 1 17 -2 13 -5z m186 -11 c-7
-2 -19 -2 -25 0 -7 3 -2 5 12 5 14 0 19 -2 13 -5z"/>
<path d="M240 1092 c0 -5 7 -9 15 -9 8 0 15 4 15 9 0 4 -7 8 -15 8 -8 0 -15
-4 -15 -8z"/>
<path d="M1168 1093 c12 -2 30 -2 40 0 9 3 -1 5 -23 4 -22 0 -30 -2 -17 -4z"/>
<path d="M2132 1088 c3 -7 13 -15 24 -17 16 -3 17 -1 5 13 -16 19 -34 21 -29
4z"/>
<path d="M4 1069 c0 -10 7 -14 17 -12 9 3 50 -5 90 -18 58 -17 100 -23 194
-23 66 -1 143 3 170 8 l50 9 -55 14 c-30 7 -112 16 -182 20 -70 3 -126 9 -124
12 2 3 -33 6 -78 6 -68 0 -82 -3 -82 -16z"/>
<path d="M1110 1080 c0 -5 4 -10 9 -10 6 0 13 5 16 10 3 6 -1 10 -9 10 -9 0
-16 -4 -16 -10z"/>
<path d="M2318 1063 c7 -3 16 -2 19 1 4 3 -2 6 -13 5 -11 0 -14 -3 -6 -6z"/>
<path d="M1068 1053 c7 -3 16 -2 19 1 4 3 -2 6 -13 5 -11 0 -14 -3 -6 -6z"/>
<path d="M2395 1050 l-20 -9 20 0 c11 0 29 4 40 9 l20 9 -20 0 c-11 0 -29 -4
-40 -9z"/>
<path d="M820 1040 c0 -6 7 -10 15 -10 8 0 15 2 15 4 0 2 -7 6 -15 10 -8 3
-15 1 -15 -4z"/>
<path d="M2455 1040 c-19 -8 -19 -9 3 -9 12 -1 22 4 22 9 0 6 -1 10 -2 9 -2 0
-12 -4 -23 -9z"/>
<path d="M630 1030 c8 -5 51 -10 95 -10 55 0 75 3 65 10 -8 5 -51 10 -95 10
-55 0 -75 -3 -65 -10z"/>
<path d="M0 951 l0 -60 43 -6 c23 -4 139 -1 257 5 590 32 823 47 800 53 -164
40 -327 51 -553 35 -105 -7 -250 -13 -322 -13 -128 1 -141 3 -217 43 -5 2 -8
-23 -8 -57z m717 -27 c-3 -3 -12 -4 -19 -1 -8 3 -5 6 6 6 11 1 17 -2 13 -5z"/>
<path d="M1520 978 c0 -30 1 -31 16 -16 9 9 14 24 11 32 -11 27 -27 17 -27
-16z"/>
<path d="M2120 984 c-14 -2 -60 -6 -102 -9 -59 -5 -78 -10 -78 -21 0 -9 4 -12
10 -9 6 4 7 -1 3 -11 -4 -11 -3 -15 5 -10 6 3 13 2 17 -4 4 -6 11 -8 16 -5 5
4 9 0 9 -7 1 -7 8 -1 16 15 8 15 17 27 20 27 3 0 2 -5 -1 -10 -11 -18 15 -39
46 -38 25 1 29 4 24 22 -5 19 -4 19 6 -1 17 -33 43 -30 35 3 l-7 26 24 -28 24
-27 12 34 12 34 12 -26 c9 -19 19 -25 40 -25 15 1 32 8 37 16 8 13 10 12 10
-2 0 -22 26 -23 38 -2 8 15 10 15 15 0 5 -13 11 -15 23 -8 9 5 25 7 35 5 12
-3 27 4 39 18 14 17 18 18 14 7 -5 -15 7 -24 19 -16 1 1 13 -4 26 -11 13 -7
21 -9 17 -3 -7 12 19 24 29 14 11 -11 56 -9 52 3 -10 29 -367 65 -497 49z"/>
<path d="M1574 964 c3 -9 6 -25 7 -37 0 -21 1 -21 8 -2 8 19 8 19 20 0 12 -19
12 -19 8 2 -3 15 -1 20 8 17 7 -3 16 -1 20 5 7 12 -4 18 -48 25 -23 4 -28 2
-23 -10z"/>
<path d="M1817 961 c-37 -3 -67 -9 -67 -13 0 -5 0 -15 0 -24 0 -8 5 -12 10 -9
6 3 10 1 10 -4 0 -6 -5 -11 -11 -11 -5 0 -7 -5 -3 -11 4 -8 9 -7 16 2 8 12 10
12 15 0 4 -10 11 -4 23 19 l17 33 14 -32 c8 -17 17 -31 21 -31 14 0 19 42 6
58 -12 16 -11 16 7 2 11 -8 23 -19 27 -25 5 -7 28 33 28 51 0 4 -2 4 -113 -5z"/>
<path d="M1656 952 c-3 -4 -4 -22 -4 -39 1 -22 5 -30 15 -26 8 3 11 13 8 24
-5 14 -2 17 10 13 10 -4 14 -14 10 -28 -3 -11 3 -5 14 14 11 19 20 38 21 43 0
10 -68 9 -74 -1z"/>
<path d="M2630 929 c0 -5 5 -7 10 -4 6 3 10 8 10 11 0 2 -4 4 -10 4 -5 0 -10
-5 -10 -11z"/>
<path d="M1960 906 c0 -9 5 -16 10 -16 6 0 10 4 10 9 0 6 -4 13 -10 16 -5 3
-10 -1 -10 -9z"/>
<path d="M1527 903 c-4 -3 -7 -13 -7 -22 1 -13 3 -13 11 2 11 19 8 33 -4 20z"/>
<path d="M2994 878 c3 -13 6 -26 6 -30 0 -5 4 -8 8 -8 5 0 7 14 4 30 -2 17 -9
30 -14 30 -6 0 -8 -10 -4 -22z"/>
<path d="M2897 883 c-11 -10 -8 -43 3 -43 5 0 9 11 8 25 -3 28 -2 27 -11 18z"/>
<path d="M1600 861 c-6 -12 -7 -21 -1 -21 10 0 24 30 17 37 -2 3 -9 -5 -16
-16z"/>
<path d="M1916 861 c-4 -7 -5 -15 -2 -18 9 -9 19 4 14 18 -4 11 -6 11 -12 0z"/>
<path d="M2646 861 c-4 -7 -5 -15 -2 -18 9 -9 19 4 14 18 -4 11 -6 11 -12 0z"/>
<path d="M1705 850 c-3 -5 -1 -10 4 -10 6 0 11 5 11 10 0 6 -2 10 -4 10 -3 0
-8 -4 -11 -10z"/>
<path d="M2185 850 c-3 -5 -1 -10 4 -10 6 0 11 5 11 10 0 6 -2 10 -4 10 -3 0
-8 -4 -11 -10z"/>
<path d="M2435 850 c-3 -5 -1 -10 4 -10 6 0 11 5 11 10 0 6 -2 10 -4 10 -3 0
-8 -4 -11 -10z"/>
<path d="M1520 774 c0 -33 5 -51 18 -60 16 -13 16 -14 0 -8 -16 5 -18 -1 -18
-44 0 -28 5 -54 12 -58 6 -4 8 -3 5 3 -4 6 0 14 9 17 9 3 12 2 9 -5 -5 -7 5
-8 30 -3 27 5 40 3 46 -7 5 -8 9 -9 9 -3 0 15 39 12 48 -3 5 -8 13 -9 22 -3
13 8 12 10 -2 10 -35 0 -17 41 20 46 10 2 11 -1 1 -12 -9 -11 -8 -14 5 -14 9
0 16 5 16 12 0 6 3 8 7 4 5 -4 -1 -14 -11 -22 -11 -8 -14 -14 -7 -14 7 0 9 -4
6 -10 -3 -5 0 -10 9 -10 8 0 17 -6 19 -12 4 -10 6 -9 6 1 1 11 4 11 19 0 15
-13 16 -12 3 3 -7 10 -17 16 -21 13 -4 -3 -13 1 -19 9 -9 11 -8 15 5 20 10 4
21 2 24 -5 6 -8 9 -8 14 0 4 6 15 11 24 11 13 0 13 -2 -3 -14 -18 -13 -15 -13
23 -6 35 6 42 5 42 -9 0 -14 2 -14 10 -1 5 8 10 10 10 4 0 -21 38 -23 56 -3
12 14 20 16 30 8 7 -6 29 -12 48 -14 31 -3 34 -1 21 12 -8 8 -19 11 -25 8 -5
-3 -10 -2 -10 4 0 6 -7 8 -15 5 -8 -4 -15 -1 -15 6 0 6 -5 8 -12 4 -7 -4 -8
-3 -4 5 5 7 12 9 19 3 7 -5 27 -8 45 -7 18 1 36 -3 39 -8 3 -6 1 -7 -5 -3 -7
4 -12 2 -12 -3 0 -15 23 -14 38 1 8 8 15 8 26 -2 9 -7 14 -15 12 -19 -3 -4 4
-7 14 -7 13 0 16 4 10 11 -10 12 27 61 38 50 3 -3 0 -11 -6 -17 -7 -7 -12 -18
-12 -26 0 -11 3 -12 14 -3 11 10 15 8 20 -6 3 -10 4 -5 2 10 -3 27 -3 27 15
11 24 -22 68 -27 75 -9 6 16 33 9 52 -14 12 -14 13 -14 8 1 -3 10 1 30 9 45 8
15 15 22 15 16 0 -7 5 -12 11 -10 6 1 14 -4 17 -12 3 -10 0 -12 -11 -8 -18 7
-33 -8 -17 -18 14 -9 52 14 44 27 -4 6 -1 9 7 6 8 -3 13 -11 12 -17 -2 -6 1
-11 6 -11 5 0 12 -8 14 -17 4 -17 5 -17 6 0 0 9 7 17 14 17 8 0 7 4 -3 10 -13
9 -13 10 0 10 8 0 21 -4 29 -9 10 -7 9 -12 -8 -23 -18 -13 -19 -17 -6 -21 10
-4 15 -1 15 11 0 13 2 14 9 4 7 -11 10 -10 15 3 9 23 9 23 -21 40 -16 9 -20
14 -10 11 11 -4 17 0 17 10 0 8 5 12 10 9 6 -4 7 -11 4 -17 -4 -6 0 -16 8 -22
8 -6 17 -18 21 -26 4 -10 6 -8 6 8 1 12 6 22 12 22 5 0 7 -4 4 -10 -8 -12 5
-13 23 -1 11 7 11 9 -2 14 -18 7 -21 32 -6 42 6 3 18 -2 28 -11 16 -17 16 -17
0 -11 -10 3 -20 2 -23 -3 -4 -6 1 -10 11 -10 11 0 15 -6 12 -17 -4 -13 1 -18
18 -19 15 -1 21 3 17 12 -3 8 -10 11 -15 8 -6 -4 -5 3 1 15 8 13 20 20 36 19
13 -1 22 -6 19 -10 -2 -4 -13 -5 -24 -3 -24 5 -26 -8 -4 -29 8 -9 11 -16 5
-16 -19 0 -12 -17 10 -23 16 -4 18 -3 8 9 -6 8 -8 14 -4 14 4 0 1 7 -6 16 -12
14 -11 16 6 13 11 -3 20 -9 20 -16 0 -6 3 -15 8 -19 7 -7 11 16 8 46 -2 13 -1
13 8 0 5 -8 8 -17 6 -20 -2 -3 9 -5 26 -4 19 1 29 -3 29 -12 0 -8 10 -14 26
-14 14 0 23 4 19 10 -4 6 -11 8 -16 4 -11 -7 -38 24 -39 44 0 6 4 12 10 12 5
0 6 -7 3 -17 -4 -11 -3 -14 5 -9 7 4 12 1 12 -7 0 -8 9 -13 23 -11 12 1 25 3
30 3 4 1 7 8 7 16 0 9 6 12 15 9 12 -5 13 -10 4 -20 -6 -8 -17 -14 -23 -14 -7
0 -13 -10 -13 -22 -1 -13 1 -18 5 -12 4 6 21 10 39 9 18 -1 30 2 27 7 -3 4 -1
8 5 8 5 0 12 -6 14 -12 4 -8 6 -7 6 3 1 9 -9 20 -21 25 -19 6 -16 8 20 11 41
4 58 25 30 36 -10 4 -10 6 0 6 8 1 12 22 12 71 l0 70 -101 0 c-64 0 -98 -4
-94 -10 3 -5 1 -10 -4 -10 -6 0 -11 5 -11 10 0 7 -222 10 -645 10 l-645 0 0
-46z m170 -14 c0 -5 -4 -10 -10 -10 -5 0 -10 5 -10 10 0 6 5 10 10 10 6 0 10
-4 10 -10z m1120 -10 c0 -5 -4 -10 -10 -10 -5 0 -10 5 -10 10 0 6 5 10 10 10
6 0 10 -4 10 -10z m-1015 -10 c3 -6 -1 -7 -9 -4 -18 7 -21 14 -7 14 6 0 13 -4
16 -10z m-175 -10 c0 -5 -2 -10 -4 -10 -3 0 -8 5 -11 10 -3 6 -1 10 4 10 6 0
11 -4 11 -10z m753 -3 c3 -7 -3 -13 -13 -13 -10 0 -16 6 -13 13 3 7 9 13 13
13 4 0 10 -6 13 -13z m62 -6 c-3 -6 -14 -10 -23 -10 -15 1 -15 2 1 6 9 2 17 9
17 15 0 6 3 9 6 5 3 -3 3 -10 -1 -16z m-565 -12 c0 -5 -7 -9 -15 -9 -15 0 -20
12 -9 23 8 8 24 -1 24 -14z m1025 3 c-3 -3 -11 0 -18 7 -9 10 -8 11 6 5 10 -3
15 -9 12 -12z m-907 -22 c3 -9 -1 -11 -12 -7 -9 4 -16 2 -16 -3 0 -6 5 -10 10
-10 6 0 10 -7 10 -15 0 -8 -6 -15 -12 -15 -10 0 -10 -2 0 -8 9 -7 8 -13 -8
-27 -12 -11 -20 -13 -20 -6 0 7 -4 9 -10 6 -5 -3 -10 1 -10 10 0 9 -4 14 -9
11 -5 -3 -11 0 -14 7 -3 8 1 14 9 14 8 0 14 -4 14 -9 0 -4 7 -8 16 -8 8 0 12
5 9 10 -3 6 -1 10 5 10 7 0 10 7 6 15 -7 20 4 47 17 42 6 -2 13 -9 15 -17z
m197 10 c3 -5 1 -10 -4 -10 -6 0 -11 5 -11 10 0 6 2 10 4 10 3 0 8 -4 11 -10z
m335 -11 c0 -18 -2 -19 -15 -9 -15 12 -12 30 6 30 5 0 9 -10 9 -21z m-285 1
c3 -5 1 -10 -4 -10 -6 0 -11 5 -11 10 0 6 2 10 4 10 3 0 8 -4 11 -10z m-661
-16 c3 -8 2 -12 -4 -9 -6 3 -10 10 -10 16 0 14 7 11 14 -7z m331 6 c3 -5 2
-10 -4 -10 -5 0 -13 5 -16 10 -3 6 -2 10 4 10 5 0 13 -4 16 -10z m145 -5 c0
-8 -4 -15 -10 -15 -5 0 -10 7 -10 15 0 8 5 15 10 15 6 0 10 -7 10 -15z m270 5
c0 -5 -7 -10 -16 -10 -8 0 -12 5 -9 10 3 6 10 10 16 10 5 0 9 -4 9 -10z m549
-17 c0 -25 -1 -26 -9 -8 -12 27 -12 35 0 35 6 0 10 -12 9 -27z m-1178 3 c5 3
9 0 9 -6 0 -7 -7 -9 -16 -6 -9 3 -18 6 -20 6 -3 0 -2 5 2 12 6 9 9 9 12 0 2
-7 8 -10 13 -6z m-67 -16 c7 0 13 -7 13 -15 0 -13 -3 -13 -19 2 -10 9 -18 21
-17 27 0 6 3 6 6 -1 2 -7 10 -13 17 -13z m543 -15 c-4 -8 -12 -15 -19 -14 -10
0 -10 2 0 6 6 2 12 12 12 21 0 8 3 13 6 9 4 -3 4 -13 1 -22z m637 9 c3 -8 2
-12 -4 -9 -6 3 -10 10 -10 16 0 14 7 11 14 -7z m-930 -15 c-8 -14 -24 -10 -24
6 0 9 6 12 15 9 8 -4 12 -10 9 -15z m436 -9 c0 -5 -5 -10 -11 -10 -5 0 -7 5
-4 10 3 6 8 10 11 10 2 0 4 -4 4 -10z m640 -4 c0 -2 -9 -6 -20 -9 -11 -3 -18
-1 -14 4 5 9 34 13 34 5z"/>
<path d="M2998 623 c7 -3 16 -2 19 1 4 3 -2 6 -13 5 -11 0 -14 -3 -6 -6z"/>
<path d="M2445 600 c-3 -5 -1 -10 4 -10 6 0 11 5 11 10 0 6 -2 10 -4 10 -3 0
-8 -4 -11 -10z"/>
<path d="M2790 599 c0 -5 5 -7 10 -4 6 3 10 8 10 11 0 2 -4 4 -10 4 -5 0 -10
-5 -10 -11z"/>
<path d="M431 455 c-33 -36 -48 -45 -75 -45 -34 0 -87 -30 -141 -80 -16 -15
-43 -35 -60 -43 l-30 -16 38 -1 c25 0 37 4 37 14 0 19 87 95 117 102 45 12 38
-8 -25 -67 l-64 -59 -114 0 -114 0 1 -47 c1 -36 3 -42 8 -24 9 34 53 45 80 20
28 -26 38 -24 46 11 6 25 11 30 36 30 40 0 72 -18 65 -36 -3 -8 -1 -14 5 -14
6 0 8 -9 4 -20 -6 -18 -2 -20 44 -20 28 0 51 5 51 10 0 6 9 19 20 30 17 17 24
18 45 8 14 -6 25 -16 25 -22 0 -6 11 -16 25 -22 17 -8 24 -8 22 -1 -1 6 7 13
17 15 11 2 26 11 34 19 20 19 4 30 -43 28 -19 0 -35 3 -35 7 0 4 -3 7 -7 7
-20 -3 -22 3 -7 26 10 16 14 34 9 54 -4 18 0 43 11 67 l18 39 4 -35 c3 -33 22
-69 22 -42 0 23 16 12 33 -23 16 -33 39 -45 51 -27 3 5 28 7 55 6 38 -1 59 -9
81 -27 31 -27 29 -27 145 -11 28 4 58 8 67 8 10 1 18 4 18 9 0 4 0 11 0 16 0
6 -13 6 -32 0 -48 -14 -173 -2 -216 20 -20 11 -73 56 -117 100 -44 45 -87 81
-96 81 -9 0 -35 -20 -58 -45z m-54 -106 c-9 -6 -17 -16 -17 -23 0 -7 -9 -21
-20 -31 -12 -10 -19 -24 -16 -31 5 -14 -42 -16 -50 -2 -3 5 2 19 13 30 27 31
95 79 102 72 3 -3 -2 -10 -12 -15z m20 -105 c-3 -3 -12 -4 -19 -1 -8 3 -5 6 6
6 11 1 17 -2 13 -5z"/>
<path d="M2200 420 c-8 -5 -26 -10 -40 -10 -25 -1 -25 -1 -5 -16 11 -9 44 -28
73 -41 47 -22 67 -25 152 -24 56 0 102 -4 105 -9 4 -6 -6 -10 -22 -11 -15 0
-62 -4 -103 -8 -65 -7 -79 -6 -107 11 -27 16 -46 19 -103 15 -66 -5 -71 -4
-91 22 -13 17 -22 22 -25 13 -3 -6 -10 -9 -16 -6 -7 4 -8 -5 -3 -26 6 -26 2
-37 -20 -60 l-27 -28 29 -5 c15 -3 60 -9 98 -12 39 -3 86 -8 105 -11 l35 -4
-30 11 c-30 12 -85 57 -85 70 0 13 41 -3 50 -20 5 -10 23 -18 47 -19 23 -2 44
-10 53 -21 22 -28 54 -34 129 -26 l66 8 -57 21 c-73 28 -81 36 -26 29 23 -4
49 -12 56 -20 21 -21 61 -27 100 -15 21 7 62 16 93 22 48 9 56 14 52 30 -3 10
-22 30 -42 45 -30 20 -43 24 -62 16 -19 -7 -29 -4 -50 15 -25 24 -26 24 -50 6
-15 -12 -46 -21 -81 -24 l-57 -5 55 28 c107 54 111 54 321 -49 l93 -44 95 17
c85 15 94 19 78 31 -24 18 -48 17 -63 -1 -18 -21 -63 -19 -91 6 -18 16 -32 19
-59 15 -28 -4 -40 -1 -63 22 -23 22 -29 24 -37 12 -7 -10 -10 -11 -10 -2 0 6
-3 11 -7 10 -5 -2 -35 6 -68 16 -49 16 -68 17 -110 9 -29 -6 -59 -7 -73 -2
-19 7 -24 5 -32 -16 -11 -28 -34 -35 -26 -7 4 10 -1 27 -9 38 -15 19 -15 19
-32 -3 -12 -16 -34 -25 -67 -29 l-48 -7 17 26 c19 29 18 32 -5 17z"/>
<path d="M1758 383 c-44 -36 -72 -45 -43 -13 10 11 15 20 12 20 -3 0 -29 -9
-57 -20 -52 -21 -159 -29 -130 -10 13 8 12 10 -2 10 -14 0 -18 -9 -18 -41 0
-38 2 -41 23 -35 12 4 48 11 80 15 32 4 62 12 65 17 4 5 13 10 21 12 7 2 33
16 56 32 23 16 57 33 76 38 l34 10 -39 -1 c-28 0 -49 -9 -78 -34z"/>
<path d="M1888 413 c6 -2 18 -2 25 0 6 3 1 5 -13 5 -14 0 -19 -2 -12 -5z"/>
<path d="M1990 401 c-5 -11 -10 -35 -10 -54 0 -43 -18 -58 -82 -68 -66 -11
-87 -29 -32 -29 21 0 49 -3 62 -6 16 -5 22 -2 22 10 0 9 7 16 15 16 14 0 34
55 42 118 4 36 -2 41 -17 13z"/>
<path d="M1815 381 c-48 -22 -85 -56 -85 -77 0 -12 -7 -14 -29 -9 -33 7 -87
-4 -74 -15 4 -4 29 -11 54 -14 41 -6 47 -4 70 22 14 15 47 41 72 57 76 49 71
73 -8 36z"/>
<path d="M916 370 c-76 -38 -86 -57 -26 -52 27 3 44 11 51 23 13 26 35 24 54
-5 13 -20 22 -23 53 -19 31 4 41 0 66 -26 l29 -30 -29 -6 c-16 -4 -41 -11 -56
-17 -15 -5 -31 -7 -37 -4 -5 4 -12 2 -16 -4 -3 -5 -15 -10 -26 -10 -10 0 -19
-4 -19 -8 0 -4 -66 -7 -147 -5 -82 1 -154 -1 -162 -6 -22 -14 -3 -31 35 -31
23 0 33 -4 28 -11 -4 -8 0 -8 15 0 14 8 21 8 21 1 0 -5 7 -10 16 -10 8 0 13 4
10 9 -7 11 73 19 209 20 61 0 116 0 123 1 6 0 12 9 12 19 0 24 22 34 82 36 28
1 53 8 63 19 17 16 15 17 -26 14 -33 -2 -49 2 -68 19 -34 30 -177 103 -199
103 -9 -1 -34 -9 -56 -20z"/>
<path d="M1852 343 c-23 -15 -44 -35 -47 -43 -3 -9 -17 -21 -33 -27 l-27 -11
28 -1 c29 -1 96 51 118 92 13 22 11 22 -39 -10z"/>
<path d="M467 310 c-10 -36 -8 -70 2 -70 15 0 21 32 13 65 l-8 30 -7 -25z"/>
<path d="M1460 289 c0 -7 -12 -10 -30 -7 -16 3 -30 0 -30 -5 0 -5 -11 -7 -25
-5 -13 3 -22 1 -19 -3 3 -5 -6 -9 -20 -9 -35 0 -38 -12 -10 -39 17 -16 22 -31
20 -53 -2 -17 -8 -33 -14 -37 -10 -6 2 -51 14 -51 3 0 4 7 0 15 -3 10 1 15 13
15 27 0 44 52 28 87 -10 22 -8 28 12 44 13 11 29 19 36 19 22 0 45 -29 45 -56
0 -27 -19 -38 -73 -43 -5 -1 -7 -13 -5 -28 2 -20 8 -28 21 -26 12 0 16 -4 13
-13 -3 -7 0 -16 6 -20 7 -4 8 -3 4 4 -4 7 -2 12 3 12 6 0 11 12 11 26 0 17 6
28 20 31 18 5 20 14 20 75 0 43 -4 67 -10 63 -5 -3 -10 -1 -10 4 0 6 -4 11
-10 11 -5 0 -10 -5 -10 -11z"/>
<path d="M980 282 c0 -6 13 -18 30 -27 34 -18 40 -18 40 -5 0 6 -8 10 -17 10
-9 0 -25 7 -35 17 -10 9 -18 11 -18 5z"/>
<path d="M1540 280 c-13 -8 -12 -10 3 -10 9 0 17 5 17 10 0 12 -1 12 -20 0z"/>
<path d="M585 250 c-3 -5 8 -16 25 -25 30 -16 31 -16 21 3 -12 23 -38 35 -46
22z"/>
<path d="M965 240 c3 -5 8 -10 11 -10 2 0 4 5 4 10 0 6 -5 10 -11 10 -5 0 -7
-4 -4 -10z"/>
<path d="M797 223 c6 -15 39 -18 47 -4 3 5 -7 11 -23 13 -21 3 -28 1 -24 -9z"/>
<path d="M905 230 c-4 -6 3 -10 14 -10 25 0 27 6 6 13 -8 4 -17 2 -20 -3z"/>
<path d="M1423 223 c-3 -10 -8 -22 -11 -27 -3 -5 0 -6 5 -3 11 7 25 47 17 47
-3 0 -7 -8 -11 -17z"/>
<path d="M183 200 c-1 -11 2 -20 7 -20 10 0 20 26 13 34 -12 11 -19 6 -20 -14z"/>
<path d="M1446 205 c-9 -26 -7 -32 5 -12 6 10 9 21 6 23 -2 3 -7 -2 -11 -11z"/>
<path d="M150 199 c0 -5 5 -7 10 -4 6 3 10 8 10 11 0 2 -4 4 -10 4 -5 0 -10
-5 -10 -11z"/>
<path d="M1264 204 c-13 -5 -7 -44 6 -44 4 0 10 11 12 25 5 25 3 27 -18 19z"/>
<path d="M593 179 c-2 -23 3 -25 10 -4 4 8 3 16 -1 19 -4 3 -9 -4 -9 -15z"/>
<path d="M1150 193 c0 -5 5 -15 10 -23 8 -12 10 -11 10 8 0 12 -4 22 -10 22
-5 0 -10 -3 -10 -7z"/>
<path d="M1311 184 c0 -11 3 -14 6 -6 3 7 2 16 -1 19 -3 4 -6 -2 -5 -13z"/>
<path d="M387 169 c4 -15 8 -17 14 -8 8 14 3 29 -11 29 -4 0 -6 -9 -3 -21z"/>
<path d="M1018 162 c-25 -3 -33 -12 -29 -34 0 -5 -3 -8 -9 -8 -5 0 -10 6 -10
14 0 8 -4 18 -10 21 -6 3 -7 -1 -4 -9 5 -12 -1 -16 -21 -16 -15 0 -24 4 -20
10 3 6 -1 10 -9 10 -9 0 -16 -4 -16 -10 0 -15 -47 -12 -53 3 -4 8 -6 7 -6 -3
-1 -13 -2 -13 -11 0 -5 8 -10 11 -10 5 0 -13 -121 -7 -137 7 -7 6 -13 6 -13 1
0 -5 -13 -16 -29 -26 -32 -19 -79 -11 -114 20 -16 14 -19 15 -15 3 4 -10 0
-16 -11 -16 -9 -1 -29 -4 -46 -8 -44 -11 -84 -8 -108 9 -28 19 -48 19 -23 0
11 -8 14 -15 8 -15 -7 0 -17 -11 -22 -25 -6 -15 -17 -25 -30 -25 -11 0 -20 -4
-20 -10 0 -6 9 -6 25 0 14 5 33 7 42 4 15 -5 16 -4 3 5 -10 7 -11 11 -3 11 7
0 17 -9 23 -20 13 -25 30 -17 30 13 0 12 4 17 8 12 13 -20 49 -14 60 8 10 21
11 21 11 2 1 -11 6 -27 12 -35 9 -13 10 -13 6 2 -6 17 33 68 52 68 20 0 43
-34 38 -57 -3 -17 0 -23 14 -23 11 0 19 4 19 9 0 18 31 41 55 41 13 0 30 -9
38 -21 14 -18 21 -20 83 -14 89 8 111 12 125 20 6 4 22 2 35 -6 21 -11 26 -10
40 7 15 19 16 19 9 -1 -4 -15 -3 -17 5 -9 6 6 13 24 15 40 2 16 4 31 4 34 1 3
6 -2 11 -10 6 -9 13 -11 18 -5 9 13 46 19 38 7 -3 -5 1 -15 9 -22 7 -6 11 -18
8 -26 -3 -8 -1 -14 5 -14 6 0 9 8 7 18 -1 9 5 26 14 37 15 19 15 19 -3 5 -18
-14 -19 -13 -13 2 4 12 2 15 -9 11 -7 -3 -14 -1 -14 4 0 10 -6 11 -52 5z"/>
<path d="M3 121 c0 -20 2 -29 5 -21 10 22 33 24 26 2 -5 -14 -3 -14 10 2 9 11
15 20 13 21 -1 0 -13 8 -27 17 -25 15 -25 15 -27 -21z"/>
<path d="M100 135 c-7 -13 -17 -22 -21 -19 -5 3 -6 -2 -3 -11 4 -9 9 -13 12
-10 3 3 12 -7 19 -22 7 -16 11 -20 9 -11 -5 16 0 24 38 56 17 14 27 16 23 5
-2 -8 38 -53 47 -53 2 0 2 9 -1 20 -3 11 -10 20 -17 20 -6 0 -4 5 4 11 13 9
13 10 -1 6 -9 -3 -21 -1 -27 5 -8 8 -16 7 -27 -2 -13 -11 -14 -10 -8 6 6 17 5
17 -10 5 -9 -7 -14 -17 -11 -22 3 -5 -2 -6 -11 -3 -14 6 -14 8 1 19 10 7 13
14 7 18 -5 4 -16 -5 -23 -18z"/>
<path d="M447 153 c-4 -3 -7 -11 -7 -17 0 -6 5 -5 12 2 6 6 9 14 7 17 -3 3 -9
2 -12 -2z"/>
<path d="M1290 149 c0 -5 5 -7 10 -4 6 3 10 8 10 11 0 2 -4 4 -10 4 -5 0 -10
-5 -10 -11z"/>
<path d="M1477 133 c-4 -3 -7 -16 -6 -27 0 -19 1 -19 10 3 10 24 8 36 -4 24z"/>
<path d="M257 111 c-4 -17 -3 -21 5 -13 5 5 8 16 6 23 -3 8 -7 3 -11 -10z"/>
<path d="M1125 120 c-3 -5 -1 -10 4 -10 6 0 11 5 11 10 0 6 -2 10 -4 10 -3 0
-8 -4 -11 -10z"/>
<path d="M1210 120 c0 -6 -5 -9 -11 -7 -6 1 -14 -4 -17 -12 -3 -8 0 -11 7 -7
6 4 11 3 11 -1 0 -5 7 -18 16 -29 16 -20 16 -13 -2 31 -3 8 -1 15 4 15 6 0 13
-8 15 -17 4 -14 5 -13 6 3 0 12 -6 24 -14 28 -8 3 -15 1 -15 -4z"/>
<path d="M1031 94 c0 -11 3 -14 6 -6 3 7 2 16 -1 19 -3 4 -6 -2 -5 -13z"/>
<path d="M1293 96 c3 -8 2 -16 -2 -18 -5 -2 1 -12 12 -23 20 -20 20 -20 14 3
-3 15 -1 20 6 15 7 -3 3 3 -7 15 -22 25 -30 28 -23 8z"/>
<path d="M1110 89 c0 -6 7 -9 15 -5 8 3 15 1 15 -5 0 -6 5 -7 11 -3 8 4 7 9
-2 15 -19 12 -39 11 -39 -2z"/>
<path d="M1360 90 c0 -5 5 -10 10 -10 6 0 10 5 10 10 0 6 -4 10 -10 10 -5 0
-10 -4 -10 -10z"/>
<path d="M161 74 c0 -11 3 -14 6 -6 3 7 2 16 -1 19 -3 4 -6 -2 -5 -13z"/>
<path d="M641 64 c0 -11 3 -14 6 -6 3 7 2 16 -1 19 -3 4 -6 -2 -5 -13z"/>
<path d="M197 46 c-4 -10 -1 -13 9 -9 15 6 19 23 5 23 -5 0 -11 -7 -14 -14z"/>
<path d="M16 15 c8 -19 14 -19 14 0 0 8 -4 15 -10 15 -5 0 -7 -7 -4 -15z"/>
</g>
</svg>
