<?xml version="1.0" standalone="no"?>
<!DOCTYPE svg PUBLIC "-//W3C//DTD SVG 20010904//EN"
 "http://www.w3.org/TR/2001/REC-SVG-20010904/DTD/svg10.dtd">
<svg version="1.0" xmlns="http://www.w3.org/2000/svg"
 width="600.000000pt" height="425.000000pt" viewBox="0 0 600.000000 425.000000"
 preserveAspectRatio="xMidYMid meet">
<metadata>
Created by potrace 1.16, written by Peter Selinger 2001-2019
</metadata>
<g transform="translate(0.000000,425.000000) scale(0.100000,-0.100000)"
fill="#000000" stroke="none">
<path d="M870 4143 c-28 -10 -66 -37 -103 -74 l-57 -58 -46 16 c-60 20 -157
12 -210 -17 -96 -54 -154 -145 -155 -246 -1 -52 -3 -55 -33 -68 -86 -36 -139
-118 -135 -211 2 -45 -1 -59 -14 -67 -34 -18 -69 -95 -69 -151 -1 -81 35 -137
113 -177 34 -18 69 -19 480 -22 410 -3 447 -2 484 15 53 24 84 54 106 102 34
73 21 157 -33 212 -26 27 -33 43 -33 76 -1 23 -4 60 -8 82 -7 37 -6 41 20 56
97 56 213 18 262 -85 l21 -45 35 14 c74 32 163 5 213 -64 44 -61 48 -99 16
-166 -14 -31 -35 -61 -45 -68 -10 -6 -19 -16 -19 -20 0 -13 42 3 76 29 l31 24
19 -23 c52 -60 55 -142 7 -205 -47 -62 -47 -62 -538 -62 -372 0 -445 -2 -445
-14 0 -7 10 -16 23 -20 12 -3 213 -6 448 -6 l425 0 53 26 c72 36 111 96 111
171 0 64 -17 108 -57 146 -27 25 -30 33 -25 76 3 35 -1 61 -17 96 -11 26 -21
55 -21 64 0 51 -34 123 -80 174 -41 45 -50 62 -50 91 0 79 -64 173 -151 221
-48 27 -63 30 -136 29 -69 0 -84 2 -88 16 -11 35 -99 110 -152 130 -65 24
-159 25 -223 3z m225 -44 c47 -22 94 -67 123 -119 12 -21 25 -33 33 -30 8 2
46 4 84 4 80 0 130 -21 182 -76 39 -41 67 -120 59 -169 -5 -33 -3 -39 29 -60
19 -13 35 -27 35 -30 0 -3 8 -14 18 -25 9 -10 23 -31 29 -46 11 -24 10 -26 -5
-21 -9 3 -23 11 -31 17 -8 6 -49 11 -93 11 -43 0 -78 2 -78 6 0 4 -19 25 -41
48 -71 71 -173 87 -272 43 -40 -18 -47 -19 -58 -6 -21 26 -92 62 -136 69 -22
3 -58 2 -80 -4 -28 -8 -39 -8 -42 1 -2 7 -24 34 -49 60 -61 66 -133 84 -225
56 -38 -11 -107 -69 -132 -109 -8 -13 -20 -15 -60 -10 l-50 6 1 55 c2 92 63
180 152 217 53 22 143 20 194 -6 40 -20 44 -20 53 -4 6 9 28 37 50 61 79 88
201 112 310 61z m-368 -319 c38 -17 91 -79 105 -122 2 -6 22 -4 49 5 50 17
113 9 157 -19 37 -24 82 -103 82 -144 0 -43 -24 -96 -57 -127 -13 -12 -23 -27
-23 -33 0 -14 49 12 74 39 17 18 20 19 35 4 37 -37 51 -69 51 -121 0 -49 -3
-55 -47 -101 l-48 -49 -95 -7 c-52 -3 -257 -5 -455 -3 -329 3 -363 5 -390 21
-99 60 -110 202 -20 267 31 22 34 29 28 55 -26 110 43 214 153 231 39 6 60 2
117 -21 13 -6 20 0 31 27 43 102 152 144 253 98z"/>
<path d="M2953 4141 c-60 -20 -112 -57 -148 -106 l-26 -33 -37 15 c-48 20
-163 14 -217 -12 -93 -45 -156 -147 -160 -258 -2 -47 -4 -50 -41 -68 -79 -38
-128 -123 -123 -214 2 -36 -2 -48 -34 -85 -53 -63 -66 -158 -30 -225 31 -57
106 -105 162 -105 28 0 29 -1 27 -56 -1 -51 2 -58 32 -85 69 -62 156 -26 192
81 l19 55 82 0 82 0 28 -50 c15 -27 28 -53 28 -57 1 -4 -19 -19 -44 -34 -77
-44 -107 -107 -81 -169 31 -74 128 -85 184 -20 27 30 52 103 52 150 0 13 56
15 390 15 265 0 390 -3 390 -10 0 -6 -15 -19 -32 -28 -18 -9 -52 -36 -75 -58
-38 -37 -43 -46 -43 -87 0 -65 30 -98 96 -104 64 -6 95 17 124 95 18 46 21 70
17 124 l-6 67 35 11 c79 26 134 104 134 189 0 63 -13 98 -53 139 -29 30 -32
38 -29 90 2 42 -2 67 -17 97 -12 21 -21 49 -21 60 0 52 -33 129 -75 174 -32
34 -44 57 -50 91 -17 108 -80 195 -174 238 -45 21 -64 24 -123 20 -67 -5 -69
-5 -83 21 -23 46 -99 107 -159 130 -69 25 -124 26 -193 2z m191 -41 c59 -22
131 -92 142 -137 6 -24 9 -24 53 -17 118 20 209 -20 269 -118 23 -36 42 -146
24 -134 -6 4 -8 -1 -5 -14 3 -11 9 -20 13 -20 16 0 79 -69 100 -109 22 -44 20
-47 -11 -30 -37 19 -128 28 -166 15 -16 -5 -23 -3 -23 6 -1 21 -62 83 -100
103 -53 27 -155 24 -209 -6 -25 -14 -45 -19 -49 -14 -39 54 -139 89 -213 74
-39 -7 -46 -6 -59 14 -28 42 -86 96 -114 106 -42 17 -127 13 -171 -8 -46 -21
-76 -48 -101 -90 -15 -26 -21 -28 -58 -24 -69 8 -69 8 -64 66 8 92 57 165 142
210 57 30 155 30 214 -1 32 -17 42 -19 42 -9 0 8 19 36 42 62 79 90 188 117
302 75z m-367 -321 c40 -15 91 -67 104 -107 10 -30 14 -33 38 -27 108 28 177
11 225 -57 54 -76 42 -195 -25 -242 -12 -8 -18 -19 -14 -26 6 -10 69 28 87 54
8 13 48 -35 67 -81 18 -44 8 -89 -29 -140 -42 -57 -72 -62 -391 -64 l-264 -1
-3 28 c-9 86 -46 107 -96 54 -48 -52 -112 -90 -148 -90 -82 1 -162 67 -173
144 -10 61 9 109 56 149 37 32 38 36 28 66 -14 38 2 110 32 153 43 59 138 89
209 64 25 -9 46 -12 48 -7 13 37 67 103 99 120 42 22 107 27 150 10z m638
-173 c33 -14 95 -87 95 -112 0 -22 14 -24 60 -8 77 27 155 -2 202 -73 48 -73
41 -156 -19 -219 -20 -21 -31 -40 -24 -42 11 -4 69 33 84 53 14 19 65 -50 72
-98 7 -45 -11 -121 -26 -112 -4 3 -9 -3 -12 -14 -2 -10 -24 -28 -49 -39 -40
-20 -61 -22 -204 -22 -92 0 -153 4 -145 9 33 21 46 179 20 244 -16 37 -33 34
-91 -18 -28 -25 -56 -45 -63 -45 -7 0 -29 -18 -49 -40 -38 -42 -47 -90 -26
-131 11 -19 7 -19 -167 -17 l-177 3 -10 33 c-9 33 -32 42 -54 20 -9 -9 -15 -8
-27 8 -13 17 -15 25 -15 50 0 3 87 6 192 7 184 2 195 3 233 26 92 55 129 185
77 271 -9 14 -27 37 -40 52 -20 22 -25 39 -27 90 -2 35 -4 72 -6 83 -9 45 121
72 196 41z m-898 -551 c-10 -104 -64 -159 -121 -122 -57 38 -28 113 61 152 17
8 34 19 38 25 3 5 11 10 17 10 7 0 9 -21 5 -65z m911 0 c-4 -72 -27 -114 -71
-129 -39 -14 -77 15 -77 58 0 28 8 41 42 70 23 20 47 36 54 36 6 0 17 7 24 15
24 30 32 16 28 -50z m-594 -281 c-23 -48 -55 -69 -91 -57 -61 21 -56 98 10
139 23 15 53 35 67 44 l25 17 3 -53 c2 -35 -3 -66 -14 -90z m877 -66 c-12 -40
-52 -78 -82 -78 -28 0 -59 36 -59 68 0 33 28 63 97 102 l48 28 3 -42 c2 -22
-1 -58 -7 -78z"/>
<path d="M2407 2757 c-8 -13 -42 -40 -75 -61 -32 -21 -66 -51 -75 -66 -38 -64
-9 -140 62 -161 89 -27 161 59 161 193 0 37 -4 78 -10 92 -12 33 -43 34 -63 3z
m22 -154 c-18 -64 -44 -93 -84 -93 -36 0 -65 28 -65 62 0 26 48 75 105 107
l50 29 3 -31 c2 -17 -2 -50 -9 -74z"/>
<path d="M3320 2759 c-6 -11 -35 -35 -65 -54 -94 -60 -121 -116 -88 -183 13
-28 28 -40 59 -51 37 -13 44 -12 80 5 57 28 87 94 87 188 0 39 -5 81 -12 94
-15 28 -47 29 -61 1z m25 -146 c-14 -98 -105 -140 -144 -66 -21 41 9 83 97
134 l47 27 3 -26 c2 -14 1 -45 -3 -69z"/>
</g>
</svg>
